<!DOCTYPE svg PUBLIC "-//W3C//DTD SVG 1.1//EN" "http://www.w3.org/Graphics/SVG/1.1/DTD/svg11.dtd">

<svg 
version="1.1" 
id="Icons" 
xmlns="http://www.w3.org/2000/svg" 
xmlns:xlink="http://www.w3.org/1999/xlink" 
viewBox="-32 -9 90 90" 
xml:space="preserve" 
width="32px" height="32px" 
fill="#42adfe">

<g id="SVGRepo_bgCarrier" stroke-width="0"/>

<g id="SVGRepo_tracerCarrier" stroke-linecap="round" stroke-linejoin="round"/>

<g id="SVGRepo_iconCarrier"> <style type="text/css"> .st0{fill:none;stroke:#42adfe;stroke-width:1.6;stroke-linecap:round;stroke-linejoin:round;stroke-miterlimit:10;} .st1{fill:none;stroke:#42adfe;stroke-width:1.6;stroke-linejoin:round;stroke-miterlimit:10;} </style> <path class="st0" d="M12,17.81V6c0-1.66-1.34-3-3-3S6,4.34,6,6v11.81C4.21,18.85,3,20.78,3,23c0,3.31,2.69,6,6,6s6-2.69,6-6 C15,20.78,13.79,18.85,12,17.81z"/> <circle class="st0" cx="9" cy="23" r="3"/> <line class="st0" x1="9" y1="6" x2="9" y2="20"/> <circle class="st0" cx="20" cy="13" r="4"/> <line class="st0" x1="20" y1="4" x2="20" y2="6"/> <line class="st0" x1="20" y1="22" x2="20" y2="20"/> <line class="st0" x1="26.36" y1="19.36" x2="24.95" y2="17.95"/> <line class="st0" x1="29" y1="13" x2="27" y2="13"/> <line class="st0" x1="26.36" y1="6.64" x2="24.95" y2="8.05"/> </g>

</svg>